<svg width="23" height="22" viewBox="0 0 23 22" fill="none" xmlns="http://www.w3.org/2000/svg">
<path d="M11.8522 7.29625C9.8421 7.29625 8.20172 8.93663 8.20172 10.9467C8.20172 12.9568 9.8421 14.5972 11.8522 14.5972C13.8623 14.5972 15.5026 12.9568 15.5026 10.9467C15.5026 8.93663 13.8623 7.29625 11.8522 7.29625ZM22.8008 10.9467C22.8008 9.43504 22.8145 7.93707 22.7296 6.42814C22.6447 4.67548 22.2449 3.12 20.9633 1.83837C19.6789 0.553997 18.1261 0.156911 16.3735 0.0720162C14.8618 -0.0128781 13.3638 0.000814559 11.8549 0.000814559C10.3432 0.000814559 8.84527 -0.0128781 7.33634 0.0720162C5.58369 0.156911 4.0282 0.556736 2.74657 1.83837C1.4622 3.12274 1.06511 4.67548 0.980219 6.42814C0.895325 7.93981 0.909018 9.43778 0.909018 10.9467C0.909018 12.4556 0.895325 13.9564 0.980219 15.4653C1.06511 17.2179 1.46494 18.7734 2.74657 20.0551C4.03094 21.3394 5.58369 21.7365 7.33634 21.8214C8.84801 21.9063 10.346 21.8926 11.8549 21.8926C13.3666 21.8926 14.8646 21.9063 16.3735 21.8214C18.1261 21.7365 19.6816 21.3367 20.9633 20.0551C22.2476 18.7707 22.6447 17.2179 22.7296 15.4653C22.8172 13.9564 22.8008 12.4584 22.8008 10.9467ZM11.8522 16.5634C8.74395 16.5634 6.23546 14.0549 6.23546 10.9467C6.23546 7.83848 8.74395 5.32999 11.8522 5.32999C14.9604 5.32999 17.4689 7.83848 17.4689 10.9467C17.4689 14.0549 14.9604 16.5634 11.8522 16.5634ZM17.6989 6.41171C16.9732 6.41171 16.3872 5.82566 16.3872 5.09995C16.3872 4.37424 16.9732 3.7882 17.6989 3.7882C18.4246 3.7882 19.0107 4.37424 19.0107 5.09995C19.0109 5.27228 18.9771 5.44295 18.9113 5.6022C18.8454 5.76144 18.7488 5.90614 18.627 6.02799C18.5051 6.14984 18.3604 6.24645 18.2012 6.3123C18.0419 6.37814 17.8713 6.41192 17.6989 6.41171Z" fill="white"/>
</svg>
