<svg width="22" height="22" viewBox="0 0 22 22" fill="none" xmlns="http://www.w3.org/2000/svg">
<path d="M4.00031 0C1.78432 0 0 1.78432 0 4.00031V17.9079C0 20.1239 1.78432 21.9082 4.00031 21.9082H11.5381V13.3435H9.27336V10.2599H11.5381V7.62544C11.5381 5.55566 12.8763 3.65526 15.9588 3.65526C17.2069 3.65526 18.1298 3.77507 18.1298 3.77507L18.0572 6.65465C18.0572 6.65465 17.1159 6.64575 16.0889 6.64575C14.9773 6.64575 14.799 7.15792 14.799 8.00818V10.2599H18.1455L17.9997 13.3435H14.799V21.9083H17.9079C20.1239 21.9083 21.9082 20.124 21.9082 17.908V4.00033C21.9082 1.78434 20.1239 2.19082e-05 17.9079 2.19082e-05H4.00029L4.00031 0Z" fill="white"/>
</svg>
