<svg width="23" height="22" viewBox="0 0 23 22" fill="none" xmlns="http://www.w3.org/2000/svg">
<path d="M22.7105 19.474V2.43425C22.7105 1.09541 21.6114 0 20.2701 0H3.24258C1.84289 0 0.802246 1.03821 0.802246 2.43425V19.474C0.802246 20.8712 1.84289 21.9082 3.24258 21.9082H20.2701C20.916 21.9073 21.5352 21.6507 21.9925 21.1946C22.4498 20.7384 22.7079 20.1198 22.7105 19.474ZM18.0659 12.91C18.0659 12.91 19.4437 14.2696 19.7833 14.9C19.793 14.9134 19.7967 14.9256 19.8003 14.9305C19.9379 15.1617 19.9732 15.3443 19.9038 15.4782C19.7894 15.7009 19.3999 15.8129 19.2672 15.8226H16.8342C16.6638 15.8226 16.3108 15.7788 15.8824 15.483C15.5538 15.2542 15.2288 14.8757 14.9124 14.5069C14.4401 13.9592 14.0312 13.4845 13.6198 13.4845C13.5676 13.4844 13.5157 13.493 13.4664 13.5101C13.1536 13.6099 12.7568 14.0541 12.7568 15.2408C12.7568 15.612 12.4647 15.8238 12.2578 15.8238H11.1429C10.7632 15.8238 8.78536 15.6912 7.03392 13.8423C4.88448 11.5785 2.95412 7.03741 2.93708 6.99724C2.81537 6.70392 3.06731 6.54447 3.34117 6.54447H5.79976C6.1296 6.54447 6.23549 6.74408 6.31095 6.923C6.39615 7.12626 6.71747 7.9466 7.24326 8.86918C8.0989 10.3699 8.62592 10.9809 9.04582 10.9809C9.12434 10.9804 9.20144 10.9599 9.26977 10.9212C9.8187 10.6182 9.71646 8.66105 9.69212 8.25697C9.69212 8.18029 9.6909 7.38186 9.41096 6.99846C9.20892 6.72096 8.86691 6.61507 8.66 6.5749C8.74437 6.45864 8.85539 6.36432 8.98375 6.29983C9.35984 6.11239 10.0378 6.08562 10.7121 6.08562H11.0869C11.8184 6.09536 12.0083 6.14282 12.2724 6.20976C12.8067 6.33756 12.8177 6.68444 12.7702 7.86505C12.7568 8.20098 12.7422 8.58194 12.7422 9.02862C12.7422 9.12478 12.7386 9.23067 12.7386 9.34021C12.7215 9.9439 12.7021 10.6267 13.1281 10.9066C13.1832 10.9411 13.2468 10.9597 13.3118 10.9602C13.4603 10.9602 13.9046 10.9602 15.1083 8.89474C15.6378 7.98311 16.0455 6.90718 16.0735 6.82685C16.116 6.74 16.1776 6.66386 16.2536 6.60411C16.316 6.57173 16.3854 6.55542 16.4557 6.55664H19.3463C19.6628 6.55664 19.877 6.60411 19.9172 6.72461C19.9865 6.91813 19.9038 7.50844 18.5832 9.29274L17.9953 10.0717C16.7977 11.6394 16.7977 11.7197 18.0659 12.91Z" fill="white"/>
</svg>
