<svg width="15" height="14" viewBox="0 0 15 14" fill="none" xmlns="http://www.w3.org/2000/svg">
<path d="M14.345 0.107234C13.6681 -0.277858 12.9131 0.46482 12.4705 0.904925C11.4553 1.95018 10.5961 3.16047 9.63286 4.26073C8.56548 5.47102 7.5762 6.68131 6.48278 7.86414C5.85798 8.52429 5.1811 9.23946 4.76456 10.0647C3.82735 9.10189 3.02031 8.05664 1.97896 7.20398C1.22398 6.59883 -0.0256333 6.15873 0.000400376 7.61658C0.0524677 9.51458 1.64052 11.5501 2.81204 12.8428C3.30668 13.393 3.95752 13.9706 4.7125 13.9981C5.62367 14.0531 6.56089 12.8978 7.10759 12.2652C8.07088 11.1649 8.85189 9.92708 9.73699 8.79936C10.8825 7.314 12.054 5.85611 13.1734 4.34325C13.8763 3.40802 16.0892 1.09743 14.345 0.107234ZM1.14584 7.50655C1.11981 7.50655 1.09377 7.50655 1.0417 7.53401C0.93757 7.50655 0.859469 7.479 0.755334 7.42399C0.833435 7.36897 0.963604 7.39648 1.14584 7.50655Z" fill="#2F2F2F"/>
</svg>
