<svg width="21" height="21" viewBox="0 0 21 21" fill="none" xmlns="http://www.w3.org/2000/svg">
<path d="M20.539 6.9678L18.9686 5.40996C18.5034 5.87511 17.9382 6.10786 17.2737 6.10786C16.6089 6.10786 16.0441 5.87511 15.5789 5.40996C15.1134 4.94463 14.881 4.37973 14.881 3.71496C14.881 3.05014 15.1137 2.48524 15.5789 2.01987L14.0209 0.462027C13.7131 0.154718 13.3373 0.000976562 12.893 0.000976562C12.4484 0.000976562 12.0726 0.154762 11.7652 0.462027L0.461224 11.7534C0.153698 12.061 0 12.4371 0 12.8813C0 13.3257 0.153698 13.7015 0.461224 14.0091L2.01907 15.5796C2.4844 15.1144 3.04942 14.8817 3.71411 14.8817C4.37875 14.8817 4.94365 15.1141 5.40893 15.5796C5.87413 16.0448 6.10679 16.6098 6.10679 17.2745C6.10679 17.9392 5.87426 18.5039 5.40893 18.9694L6.97935 20.5397C7.28683 20.8472 7.66285 21.0009 8.10735 21.0009C8.5519 21.0009 8.92792 20.8472 9.23518 20.5397L20.539 9.22346C20.8465 8.91606 21 8.54018 21 8.09563C21 7.65112 20.8464 7.27528 20.539 6.9678ZM17.1615 9.46031L9.45942 17.1621C9.31005 17.312 9.12309 17.3867 8.89863 17.3867C8.67439 17.3867 8.48747 17.312 8.33792 17.1621L3.82621 12.6509C3.66832 12.4928 3.58944 12.306 3.58944 12.0901C3.58944 11.8741 3.66832 11.6869 3.82621 11.529L11.5282 3.82705C11.6779 3.67746 11.8649 3.6026 12.0893 3.6026C12.3134 3.6026 12.5004 3.67746 12.6501 3.82705L17.1615 8.3386C17.3196 8.49657 17.3985 8.68353 17.3985 8.89952C17.3984 9.11547 17.3195 9.30238 17.1615 9.46031Z" fill="white"/>
<path d="M12.0894 4.96094L16.0278 8.89912L8.89911 16.0278L4.96094 12.0896L12.0894 4.96094Z" fill="white"/>
</svg>
