<svg width="20" height="20" viewBox="0 0 20 20" fill="none" xmlns="http://www.w3.org/2000/svg">
<path d="M9.06334 1.50495C9.38729 0.638599 10.6127 0.638597 10.9367 1.50494L12.7306 6.30264C12.8712 6.67849 13.2228 6.93393 13.6236 6.95145L18.7409 7.17505C19.6649 7.21543 20.0436 8.38087 19.3198 8.95668L15.3113 12.1454C14.9972 12.3952 14.8629 12.8085 14.9702 13.1952L16.3388 18.1311C16.586 19.0224 15.5946 19.7427 14.8233 19.2322L10.5519 16.4053C10.2173 16.1838 9.78271 16.1838 9.44809 16.4053L5.17672 19.2322C4.40542 19.7427 3.41403 19.0224 3.66117 18.1311L5.02983 13.1952C5.13705 12.8085 5.00275 12.3952 4.68873 12.1454L0.680223 8.95668C-0.0436163 8.38087 0.335059 7.21543 1.25911 7.17505L6.37636 6.95145C6.77724 6.93393 7.12883 6.67849 7.26936 6.30264L9.06334 1.50495Z" fill="#C4C4C4"/>
</svg>
